<?xml version="1.0" encoding="UTF-8"?>
<svg xmlns="http://www.w3.org/2000/svg" id="Icons" viewBox="0 0 74 74" width="512" height="512"><path d="M3,29a1,1,0,0,1-.593-1.806l12-8.819a1,1,0,1,1,1.184,1.611l-12,8.82A.993.993,0,0,1,3,29Z"/><path d="M71,72H56.44a1,1,0,0,1,0-2H70V28a1,1,0,0,1,2,0V71A1,1,0,0,1,71,72Z"/><path d="M39.5,72H36.56a1,1,0,0,1,0-2H39.5a1,1,0,0,1,0,2Z"/><path d="M29.56,72H3a1,1,0,0,1-1-1V28a1,1,0,0,1,2,0V70H29.56a1,1,0,1,1,0,2Z"/><path d="M49.44,72H46.5a1,1,0,0,1,0-2h2.94a1,1,0,0,1,0,2Z"/><path d="M37,54.335a9.981,9.981,0,0,1-6.357-2.275L2.364,28.772a1,1,0,0,1,1.272-1.544L31.915,50.516a8.013,8.013,0,0,0,10.17,0L70.364,27.228a1,1,0,1,1,1.272,1.544L43.357,52.06A9.981,9.981,0,0,1,37,54.335Z"/><path d="M71,72a1,1,0,0,1-.636-.228l-26.11-21.5a1,1,0,1,1,1.272-1.544l26.11,21.5A1,1,0,0,1,71,72Z"/><path d="M3,72a1,1,0,0,1-.636-1.772l26.11-21.5a1,1,0,0,1,1.272,1.544l-26.11,21.5A1,1,0,0,1,3,72Z"/><path d="M71,29a.993.993,0,0,1-.591-.194l-12-8.82a1,1,0,1,1,1.184-1.611l12,8.819A1,1,0,0,1,71,29Z"/><path d="M47.839,11.97a.993.993,0,0,1-.591-.194L37,4.241,26.752,11.776a1,1,0,1,1-1.184-1.611l10.84-7.971a1,1,0,0,1,1.184,0l10.84,7.971a1,1,0,0,1-.593,1.805Z"/><path d="M59,38.88a1,1,0,0,1-1-1V11.97H16V37.88a1,1,0,0,1-2,0V10.97a1,1,0,0,1,1-1H59a1,1,0,0,1,1,1V37.88A1,1,0,0,1,59,38.88Z"/><path d="M51.562,20.18H22.438a1,1,0,1,1,0-2H51.562a1,1,0,0,1,0,2Z"/><path d="M51.562,27.746H22.438a1,1,0,0,1,0-2H51.562a1,1,0,0,1,0,2Z"/><path d="M51.562,35.312H22.438a1,1,0,0,1,0-2H51.562a1,1,0,0,1,0,2Z"/></svg>
