<svg height="512" viewBox="0 0 512 512" width="512" xmlns="http://www.w3.org/2000/svg"><g id="Out_line" data-name="Out line"><path d="m248 64h16v32h-16z"/><path d="m168.804 96.804h16v32h-16z" transform="matrix(.707 -.707 .707 .707 -27.98 158.057)"/><path d="m128 184h32v16h-32z"/><path d="m160.804 263.196h32v16h-32z" transform="matrix(.707 -.707 .707 .707 -139.98 204.454)"/><path d="m319.196 104.804h32v16h-32z" transform="matrix(.707 -.707 .707 .707 18.405 270.045)"/><path d="m327.196 255.196h16v32h-16z" transform="matrix(.707 -.707 .707 .707 -93.588 316.446)"/><path d="m352 184h32v16h-32z"/><path d="m440.61914 170.94336a198.8093 198.8093 0 0 1 15.38086 77.05664v8c0 88.22461-71.77588 160-160 160a32.05069 32.05069 0 0 1 -31.27026-25.22021 32.0508 32.0508 0 0 0 23.27026-30.77979v-1.37622a23.97691 23.97691 0 0 0 9.86926-38.62378 23.9483 23.9483 0 0 0 -1.58459-33.60889 59.825 59.825 0 0 1 17.37207-36.73388 81.53929 81.53929 0 1 0 -115.31348 0 59.82494 59.82494 0 0 1 17.372 36.73388 23.94837 23.94837 0 0 0 -1.58452 33.60889 23.97691 23.97691 0 0 0 9.86926 38.62378v1.37622a32.05028 32.05028 0 0 0 24.52991 31.1106 48.07264 48.07264 0 0 0 47.47009 40.8894c97.04688 0 176-78.95312 176-176v-8a214.7309 214.7309 0 0 0 -16.61816-83.22559zm-216.61914 133.05664a8.00917 8.00917 0 0 1 8-8h48a8 8 0 0 1 0 16h-48a8.00917 8.00917 0 0 1 -8-8zm17.7583-88h28.4834l-12.80029 64h-2.88282zm-32.10156 22.34277a65.53906 65.53906 0 1 1 92.68652 0 75.70885 75.70885 0 0 0 -21.3518 41.68238c-.32935-.01343-.65894-.02515-.99146-.02515h-6.24146l14.08619-70.43066a8.00012 8.00012 0 0 0 -7.84473-9.56934h-48a8.00012 8.00012 0 0 0 -7.84473 9.56934l14.08612 70.43066h-6.24139c-.33246 0-.66217.01172-.99139.02515a75.70863 75.70863 0 0 0 -21.35187-41.68238zm22.34326 105.65723a8 8 0 0 1 0-16h48a8 8 0 0 1 0 16zm8 16h32a16 16 0 0 1 -32 0z"/><path d="m78.5249 340.30273a199.83855 199.83855 0 0 1 177.4751-292.30273h.03516a198.28647 198.28647 0 0 1 84.57617 18.72461l6.77734-14.49414a214.16414 214.16414 0 0 0 -91.35058-20.23047h-.03809a216.07447 216.07447 0 0 0 -191.66357 315.69727z"/><path d="m164.61133 443.76953a214.41658 214.41658 0 0 0 66.47558 18.80762l1.82618-15.89453a198.46705 198.46705 0 0 1 -61.52442-17.40723z"/><path d="m472 16h-88a24.02718 24.02718 0 0 0 -24 24v76.68652l-21.65674 21.65625a8.0001 8.0001 0 0 0 5.65674 13.65723h128a24.02718 24.02718 0 0 0 24-24v-88a24.02718 24.02718 0 0 0 -24-24zm8 112a8.00917 8.00917 0 0 1 -8 8h-108.68652l10.34326-10.34277a8.00076 8.00076 0 0 0 2.34326-5.65723v-80a8.00917 8.00917 0 0 1 8-8h88a8.00917 8.00917 0 0 1 8 8z"/><path d="m408 40h32v16h-32z"/><path d="m456 40h16v16h-16z"/><path d="m392 64h32v16h-32z"/><path d="m440 64h32v16h-32z"/><path d="m392 88h48v16h-48z"/><path d="m456 88h16v16h-16z"/><path d="m392 112h32v16h-32z"/><path d="m175.39111 364.93848a8.00015 8.00015 0 0 0 -7.39111-4.93848h-128a24.02718 24.02718 0 0 0 -24 24v88a24.02718 24.02718 0 0 0 24 24h88a24.02718 24.02718 0 0 0 24-24v-76.68652l21.65674-21.65625a8.00061 8.00061 0 0 0 1.73437-8.71875zm-37.04785 21.40429a8.00076 8.00076 0 0 0 -2.34326 5.65723v80a8.00917 8.00917 0 0 1 -8 8h-88a8.00917 8.00917 0 0 1 -8-8v-88a8.00917 8.00917 0 0 1 8-8h108.68652z"/><path d="m88 456h16v16h-16z"/><path d="m40 456h32v16h-32z"/><path d="m104 432h16v16h-16z"/><path d="m40 432h48v16h-48z"/><path d="m72 408h48v16h-48z"/><path d="m40 408h16v16h-16z"/><path d="m56 384h64v16h-64z"/></g></svg>